<svg xmlns="http://www.w3.org/2000/svg" version="1.1" xmlns:xlink="http://www.w3.org/1999/xlink" width="1024" height="1024"><svg width="1024" height="1024" id="SvgjsSvg1151" version="1.1" inkscape:version="1.4 (e7c3feb1, 2024-10-09)" sodipodi:docname="vph_icon_1024_sq.svg" inkscape:export-filename="D:\PersonalData\PROJECTS\Source\nodejs\vphhome\frontend\ui\vph_logo_1024.png" inkscape:export-xdpi="96" inkscape:export-ydpi="96" xmlns:inkscape="http://www.inkscape.org/namespaces/inkscape" xmlns:sodipodi="http://sodipodi.sourceforge.net/DTD/sodipodi-0.dtd" xmlns:xlink="http://www.w3.org/1999/xlink" xmlns="http://www.w3.org/2000/svg" xmlns:svg="http://www.w3.org/2000/svg" xmlns:rdf="http://www.w3.org/1999/02/22-rdf-syntax-ns#" xmlns:cc="http://creativecommons.org/ns#" xmlns:dc="http://purl.org/dc/elements/1.1/">
  <defs id="SvgjsDefs1150">
    <linearGradient id="SvgjsLinearGradient1149">
      <stop style="stop-color:#ffffff;stop-opacity:1;" offset="0" id="SvgjsStop1148"></stop>
      <stop style="stop-color:#fff9f9;stop-opacity:0.72868216;" offset="1" id="SvgjsStop1147"></stop>
    </linearGradient>
    <linearGradient id="SvgjsLinearGradient1146">
      <stop style="stop-color:#ee2722;stop-opacity:1" offset="0" id="SvgjsStop1145"></stop>
      <stop style="stop-color:#231f20;stop-opacity:1" offset="1" id="SvgjsStop1144"></stop>
    </linearGradient>
    <inkscape:perspective sodipodi:type="inkscape:persp3d" inkscape:vp_x="-395.66113 : 161.97816 : 1" inkscape:vp_y="0 : 1971.1104 : 0" inkscape:vp_z="1589.8053 : 240.3786 : 1" inkscape:persp3d-origin="389.22784 : -74.246352 : 1" id="SvgjsInkscape:perspective1143"></inkscape:perspective>
    <linearGradient id="SvgjsLinearGradient1142">
      <stop style="stop-color:#056aff;stop-opacity:1;" offset="0" id="SvgjsStop1141"></stop>
      <stop style="stop-color:#ffffff;stop-opacity:0;" offset="1" id="SvgjsStop1140"></stop>
    </linearGradient>
    <linearGradient inkscape:collect="always" xlink:href="#linearGradient3902" id="SvgjsLinearGradient1139" x1="509.1376" y1="513.90118" x2="467.15973" y2="1029.1136" gradientUnits="userSpaceOnUse" gradientTransform="matrix(1.2524295,0,0,1.2524296,-146.91309,-129.30104)"></linearGradient>
    <clipPath clipPathUnits="userSpaceOnUse" id="SvgjsClipPath1138">
      <path style="display:inline;fill:none;stroke:#000000;stroke-width:0.999024;stroke-opacity:1" id="SvgjsPath1137" d="m 352.36035,0.49951221 h 319.27932 c 101.31665,0 151.97498,0 206.50672,17.24276179 59.53936,21.670529 106.44086,68.571988 128.11141,128.111406 17.2426,54.53154 17.2426,105.18991 17.2426,206.50662 v 319.27938 c 0,101.31672 0,151.97509 -17.2426,206.50663 -21.67055,59.53944 -68.57205,106.44084 -128.11141,128.11139 -54.53174,17.2428 -105.19007,17.2428 -206.50672,17.2428 H 352.36035 c -101.31665,0 -151.97497,0 -206.50672,-17.2428 C 86.314289,984.58715 39.412761,937.68575 17.742193,878.14631 0.49951221,823.61477 0.49951221,772.9564 0.49951221,671.63968 V 352.3603 c 0,-101.31671 0,-151.97508 17.24268079,-206.50658 C 39.412761,86.314302 86.314289,39.412803 145.85363,17.742274 200.38538,0.49951221 251.0437,0.49951221 352.36035,0.49951221 v 0" inkscape:connector-curvature="0"></path>
    </clipPath>
    <filter id="SvgjsFilter1136" inkscape:label="Drop Shadow" style="color-interpolation-filters:sRGB" x="-0.022852518" width="1.045705" y="-0.035456028" height="1.0709121">
      <feFlood id="SvgjsFeFlood1135" result="flood" flood-color="rgb(0,0,0)" flood-opacity="0.74902"></feFlood>
      <feComposite id="SvgjsFeComposite1134" result="composite1" operator="in" in2="SourceGraphic" in="flood"></feComposite>
      <feGaussianBlur id="SvgjsFeGaussianBlur1133" result="blur" stdDeviation="7.6936811" in="composite1"></feGaussianBlur>
      <feOffset id="SvgjsFeOffset1132" result="offset" dy="4" dx="4"></feOffset>
      <feComposite id="SvgjsFeComposite1131" result="composite2" operator="over" in2="offset" in="SourceGraphic"></feComposite>
    </filter>
    <filter style="color-interpolation-filters:sRGB;" inkscape:label="Drop Shadow" id="SvgjsFilter1130">
      <feFlood flood-opacity="0.74902" flood-color="rgb(0,0,0)" result="flood" id="SvgjsFeFlood1129"></feFlood>
      <feComposite in="flood" in2="SourceGraphic" operator="in" result="composite1" id="SvgjsFeComposite1128"></feComposite>
      <feGaussianBlur in="composite1" stdDeviation="8" result="blur" id="SvgjsFeGaussianBlur1127"></feGaussianBlur>
      <feOffset dx="4" dy="4" result="offset" id="SvgjsFeOffset1126"></feOffset>
      <feComposite in="SourceGraphic" in2="offset" operator="over" result="composite2" id="SvgjsFeComposite1125"></feComposite>
    </filter>
    <filter id="SvgjsFilter1124" inkscape:label="Drop Shadow" style="color-interpolation-filters:sRGB;" x="-0.011881188" y="-0.018433843" width="1.0287129" height="1.0445485">
      <feFlood id="SvgjsFeFlood1123" result="flood" flood-color="rgb(0,0,0)" flood-opacity="0.501961"></feFlood>
      <feComposite id="SvgjsFeComposite1122" result="composite1" operator="in" in2="SourceGraphic" in="flood"></feComposite>
      <feGaussianBlur id="SvgjsFeGaussianBlur1121" result="blur" stdDeviation="4" in="composite1"></feGaussianBlur>
      <feOffset id="SvgjsFeOffset1120" result="offset" dy="4" dx="4"></feOffset>
      <feComposite id="SvgjsFeComposite1119" result="composite2" operator="over" in2="offset" in="SourceGraphic"></feComposite>
    </filter>
  </defs>
  <sodipodi:namedview id="SvgjsSodipodi:namedview1118" pagecolor="#ffffff" bordercolor="#666666" borderopacity="1.0" inkscape:pageopacity="0.0" inkscape:pageshadow="2" inkscape:zoom="0.28244901" inkscape:cx="-76.119935" inkscape:cy="916.97968" inkscape:document-units="px" inkscape:current-layer="layer3" showgrid="false" showguides="false" inkscape:guide-bbox="true" fit-margin-top="0" fit-margin-left="0" fit-margin-right="0" fit-margin-bottom="0" inkscape:window-width="1440" inkscape:window-height="847" inkscape:window-x="0" inkscape:window-y="25" inkscape:window-maximized="0" inkscape:showpageshadow="false" borderlayer="true" showborder="false" inkscape:snap-global="false" inkscape:snap-page="false" inkscape:snap-bbox="true" inkscape:document-rotation="0" inkscape:pagecheckerboard="true" inkscape:deskcolor="#d1d1d1">
    <sodipodi:guide orientation="0,1" position="-10.429825,956.71547" id="SvgjsSodipodi:guide1117" inkscape:locked="false"></sodipodi:guide>
    <sodipodi:guide orientation="1,0" position="956.5625,59.8125" id="SvgjsSodipodi:guide1116" inkscape:locked="false"></sodipodi:guide>
    <sodipodi:guide orientation="0,1" position="1246.875,315.625" id="SvgjsSodipodi:guide1115" inkscape:locked="false"></sodipodi:guide>
    <sodipodi:guide orientation="1,0" position="67.351921,64.523494" id="SvgjsSodipodi:guide1114" inkscape:locked="false"></sodipodi:guide>
    <sodipodi:guide orientation="0,1" position="961.5,67.5" id="SvgjsSodipodi:guide1113" inkscape:locked="false"></sodipodi:guide>
    <sodipodi:guide orientation="1,0" position="319.08193,67.707547" id="SvgjsSodipodi:guide1112" inkscape:locked="false"></sodipodi:guide>
    <sodipodi:guide orientation="1,0" position="511.68014,67.707547" id="SvgjsSodipodi:guide1111" inkscape:locked="false"></sodipodi:guide>
    <sodipodi:guide orientation="1,0" position="706.1875,64.734375" id="SvgjsSodipodi:guide1110" inkscape:locked="false"></sodipodi:guide>
    <sodipodi:guide orientation="0,1" position="-21.213203,1024" id="SvgjsSodipodi:guide1109" inkscape:locked="false"></sodipodi:guide>
    <sodipodi:guide orientation="0,1" position="0,0" id="SvgjsSodipodi:guide1108" inkscape:locked="false"></sodipodi:guide>
    <sodipodi:guide orientation="1,0" position="0,1042.6289" id="SvgjsSodipodi:guide1107" inkscape:locked="false"></sodipodi:guide>
    <sodipodi:guide orientation="0,1" position="-6.8942911,705" id="SvgjsSodipodi:guide1106" inkscape:locked="false"></sodipodi:guide>
    <sodipodi:guide orientation="1,0" position="1024,1037.75" id="SvgjsSodipodi:guide1105" inkscape:locked="false"></sodipodi:guide>
    <sodipodi:guide orientation="0,1" position="-27.223611,512.65241" id="SvgjsSodipodi:guide1104" inkscape:locked="false"></sodipodi:guide>
    <inkscape:grid type="xygrid" id="SvgjsInkscape:grid1103" empspacing="5" visible="true" enabled="true" snapvisiblegridlinesonly="true" originx="0" originy="0" spacingy="1" spacingx="1" units="px"></inkscape:grid>
    <sodipodi:guide orientation="1,0" position="511.68014,430.8932" id="SvgjsSodipodi:guide1102" inkscape:locked="false"></sodipodi:guide>
  </sodipodi:namedview>
  <metadata id="SvgjsMetadata1101">
    <rdf:rdf>
      <cc:work rdf:about="">
        <dc:format>image/svg+xml</dc:format>
        <dc:type rdf:resource="http://purl.org/dc/dcmitype/StillImage"></dc:type>
        <dc:title></dc:title>
      </cc:work>
    </rdf:rdf>
  </metadata>
  <g inkscape:groupmode="layer" id="SvgjsG1100" inkscape:label="Background" style="display:none" sodipodi:insensitive="true">
    <rect style="fill:#ffffff;fill-opacity:1;stroke-width:1.22655" id="SvgjsRect1099" width="1024" height="1024" x="0" y="0" clip-path="url(#clipPath936)"></rect>
  </g>
  <g inkscape:groupmode="layer" id="SvgjsG1098" inkscape:label="Layer" style="display:inline">
    <g inkscape:export-ydpi="96" inkscape:export-xdpi="96" transform="matrix(1.2319538,0,0,1.2319538,-121.22425,-121.22428)" style="display:inline;mix-blend-mode:normal;filter:url(#filter914)" id="SvgjsG1097">
      <path inkscape:connector-curvature="0" id="SvgjsPath1096" d="m 367.42184,585.82677 a 226.00542,226.05492 0 0 0 -30.0491,2.27426 226.98679,229.67466 0 0 0 -1.93701,0.23562 226.00542,226.05492 0 0 0 -18.62782,3.51843 226.98679,229.67466 0 0 0 -4.50079,1.01054 226.00542,226.05492 0 0 0 -15.84014,4.68868 226.98679,229.67466 0 0 0 -6.53695,2.17101 226.00542,226.05492 0 0 0 -13.30368,5.44803 226.98679,229.67466 0 0 0 -8.16452,3.6547 226.00542,226.05492 0 0 0 -10.91108,5.81215 226.98679,229.67466 0 0 0 -9.47848,5.43825 226.00542,226.05492 0 0 0 -8.55569,5.72845 226.98679,229.67466 0 0 0 -10.63276,7.60538 226.00542,226.05492 0 0 0 -6.03283,4.98276 226.98679,229.67466 0 0 0 -11.82606,10.39169 226.00542,226.05492 0 0 0 -3.26657,3.30036 226.98679,229.67466 0 0 0 -13.07789,14.03868 226.00542,226.05492 0 0 0 -0.35815,0.44393 A 226.98679,229.67466 0 0 0 139.60287,814.45111 154.43109,154.46491 0 0 0 0.70079371,954.03773 151.32451,153.11644 0 0 0 0.27651572,962.53308 154.43109,154.46491 0 0 0 -2.8651136e-7,968.05498 154.43109,154.46491 0 0 0 0.01800727,968.56328 a 151.32451,153.11644 0 0 0 0.23559884,6.6104 154.43109,154.46491 0 0 0 0.2803176,5.0119 151.32451,153.11644 0 0 0 121.08199629,138.71052 154.43109,154.46491 0 0 0 3.22766,0.7107 151.32451,153.11644 0 0 0 5.05362,0.7633 154.43109,154.46491 0 0 0 21.62767,2.0035 v 0.1461 h 525.23985 a 154.43109,154.46491 0 0 0 17.09187,-1.1352 151.32451,153.11644 0 0 0 7.02565,-0.8528 154.43109,154.46491 0 0 0 3.06979,-0.4692 151.32451,153.11644 0 0 0 84.53106,-258.55939 154.43109,154.46491 0 0 0 -2.09078,-2.13989 151.32451,153.11644 0 0 0 -6.48822,-6.04577 154.43109,154.46491 0 0 0 -8.06909,-6.76233 151.32451,153.11644 0 0 0 -0.70269,-0.5335 154.43109,154.46491 0 0 0 -64.16092,-29.42484 113.49339,114.83733 0 0 0 -0.41267,-10.87262 112.99329,113.01804 0 0 0 -112.71519,-105.17922 112.99329,113.01804 0 0 0 -27.97973,3.6138 226.00542,226.05492 0 0 0 -198.44146,-118.33197 z" style="fill:#0098ff;fill-opacity:1;stroke:none;stroke-width:1;stroke-linecap:round" transform="matrix(0.97133463,0,0,0.97035236,108,-316.84901)"></path>
      <path inkscape:connector-curvature="0" id="SvgjsPath1095" d="m 319.05458,678.47897 a 56.716711,56.692917 0 0 0 -56.71715,56.69336 56.716711,56.692917 0 0 0 11.34266,33.90039 l -89.38125,183.65039 a 56.716711,56.692917 0 0 0 -4.72073,-0.23632 56.716711,56.692917 0 0 0 -56.71716,56.69341 56.716711,56.692917 0 0 0 56.71716,56.6914 56.716711,56.692917 0 0 0 34.50666,-11.7481 h 370.21195 a 56.716711,56.692917 0 0 0 41.4842,18.1036 56.716711,56.692917 0 0 0 56.71716,-56.6934 56.716711,56.692917 0 0 0 -35.1925,-52.40628 l -28.0567,-91.14648 a 56.716711,56.692917 0 0 0 26.76123,-48.10158 56.716711,56.692917 0 0 0 -56.71716,-56.6914 56.716711,56.692917 0 0 0 -45.46047,22.89258 L 375.73071,734.07078 a 56.716711,56.692917 0 0 0 -56.67613,-55.59181 z m 44.72189,91.44727 168.91853,56.2832 a 56.716711,56.692917 0 0 0 49.48169,53.86133 l 25.20979,81.89648 a 56.716711,56.692917 0 0 0 -20.08654,12.01368 L 442.97376,910.33444 a 56.716711,56.692917 0 0 0 0.297,-5.74609 56.716711,56.692917 0 0 0 -56.71715,-56.69336 56.716711,56.692917 0 0 0 -3.50147,0.17579 l -29.57687,-67.99806 a 56.716711,56.692917 0 0 0 10.3012,-10.14648 z m -58.30766,20.22656 a 56.716711,56.692917 0 0 0 11.87803,1.65039 l 30.90945,71.0625 a 56.716711,56.692917 0 0 0 -18.41788,41.72266 56.716711,56.692917 0 0 0 0.82456,9.63672 L 220.06775,969.4985 a 56.716711,56.692917 0 0 0 -1.29742,-1.20703 z m 121.30675,154.34766 142.91542,63.02344 a 56.716711,56.692917 0 0 0 -0.62721,8.0098 56.716711,56.692917 0 0 0 0.0273,0.7949 H 235.78723 a 56.716711,56.692917 0 0 0 0.50803,-7.1484 56.716711,56.692917 0 0 0 -0.30873,-5.3809 l 113.23306,-56.59181 a 56.716711,56.692917 0 0 0 37.33402,14.07422 56.716711,56.692917 0 0 0 40.22195,-16.78125 z" style="color:#000000;font-style:normal;font-variant:normal;font-weight:normal;font-stretch:normal;font-size:medium;line-height:normal;font-family:sans-serif;font-variant-ligatures:normal;font-variant-position:normal;font-variant-caps:normal;font-variant-numeric:normal;font-variant-alternates:normal;font-feature-settings:normal;text-indent:0;text-align:start;text-decoration:none;text-decoration-line:none;text-decoration-style:solid;text-decoration-color:#000000;letter-spacing:normal;word-spacing:normal;text-transform:none;writing-mode:lr-tb;direction:ltr;text-orientation:mixed;dominant-baseline:auto;baseline-shift:baseline;text-anchor:start;white-space:normal;shape-padding:0;clip-rule:nonzero;display:inline;overflow:visible;visibility:visible;isolation:auto;mix-blend-mode:normal;color-interpolation:sRGB;color-interpolation-filters:linearRGB;solid-color:#000000;solid-opacity:1;vector-effect:none;fill:#ffffff;fill-opacity:1;fill-rule:nonzero;stroke:none;stroke-width:37.7953;stroke-linecap:butt;stroke-linejoin:miter;stroke-miterlimit:4;stroke-dasharray:none;stroke-dashoffset:0;stroke-opacity:1;color-rendering:auto;image-rendering:auto;shape-rendering:auto;text-rendering:auto;enable-background:accumulate" transform="matrix(0.97133463,0,0,0.97035236,108,-316.84901)"></path>
    </g>
  </g>
  <g inkscape:label="BORDER" inkscape:groupmode="layer" id="SvgjsG1094" transform="translate(50.25,211.52169)" style="display:none" sodipodi:insensitive="true">
    <path inkscape:connector-curvature="0" d="m 302.11051,-211.02169 h 319.27898 c 101.31656,0 151.97483,0 206.50654,17.24274 59.53927,21.67055 106.44076,68.57196 128.11127,128.111312 17.2427,54.53149 17.2427,105.1898 17.2427,206.506418 v 319.27906 c 0,101.31662 0,151.97493 -17.2427,206.50643 -21.67051,59.53937 -68.572,106.44072 -128.11127,128.11131 -54.53171,17.2427 -105.18998,17.2427 -206.50654,17.2427 H 302.11051 c -101.31656,0 -151.97483,0 -206.50653,-17.2427 C 36.064695,773.06499 -10.836786,726.16364 -32.507335,666.62427 -49.750001,612.09277 -49.750001,561.43446 -49.750001,460.11784 V 140.83878 c 0,-101.316618 0,-151.974928 17.242666,-206.506388 21.670549,-59.539342 68.57203,-106.440792 128.111315,-128.111342 54.5317,-17.24274 105.18997,-17.24274 206.50653,-17.24274 v 0" id="SvgjsPath1093" style="fill:none;stroke:#000000;stroke-width:0.999999;stroke-miterlimit:4;stroke-dasharray:none;stroke-opacity:1"></path>
  </g>
  <g inkscape:groupmode="layer" id="SvgjsG1092" inkscape:label="GUIDES" style="display:none" transform="translate(0,-2.2054443)" sodipodi:insensitive="true">
    <path style="color:#000000;display:inline;overflow:visible;visibility:visible;fill:none;stroke:#000000;stroke-width:2.00097;stroke-linecap:butt;stroke-linejoin:miter;stroke-miterlimit:4;stroke-dasharray:none;stroke-dashoffset:0;stroke-opacity:1;marker:none;enable-background:accumulate" d="M 0.99850254,321.03518 V 707.31187" id="SvgjsPath1091" inkscape:connector-curvature="0"></path>
    <ellipse style="color:#000000;display:inline;overflow:visible;visibility:visible;fill:none;stroke:#000000;stroke-width:2.00096;stroke-linecap:butt;stroke-linejoin:miter;stroke-miterlimit:4;stroke-dasharray:none;stroke-dashoffset:0;stroke-opacity:1;marker:none;enable-background:accumulate" id="SvgjsEllipse1090" cx="512.05255" cy="513.69318" rx="274.72186" ry="274.409"></ellipse>
    <ellipse style="color:#000000;display:inline;overflow:visible;visibility:visible;fill:none;stroke:#000000;stroke-width:2.00098;stroke-linecap:butt;stroke-linejoin:miter;stroke-miterlimit:4;stroke-dasharray:none;stroke-dashoffset:0;stroke-opacity:1;marker:none;enable-background:accumulate" id="SvgjsEllipse1089" cx="512.48169" cy="514.12354" rx="445.00162" ry="444.5199"></ellipse>
    <path style="color:#000000;display:inline;overflow:visible;visibility:visible;fill:none;stroke:#000000;stroke-width:2.00097;stroke-linecap:butt;stroke-linejoin:miter;stroke-miterlimit:4;stroke-dasharray:none;stroke-dashoffset:0;stroke-opacity:1;marker:none;enable-background:accumulate" d="M 67.417108,69.489974 957.49473,958.70544" id="SvgjsPath1088" inkscape:connector-curvature="0" sodipodi:nodetypes="cc"></path>
    <path style="color:#000000;display:inline;overflow:visible;visibility:visible;fill:none;stroke:#000000;stroke-width:2.00097;stroke-linecap:butt;stroke-linejoin:miter;stroke-miterlimit:4;stroke-dasharray:none;stroke-dashoffset:0;stroke-opacity:1;marker:none;enable-background:accumulate" d="M 0.99850209,707.31189 H 1023.998" id="SvgjsPath1087" inkscape:connector-curvature="0"></path>
    <path style="color:#000000;display:inline;overflow:visible;visibility:visible;fill:none;stroke:#000000;stroke-width:2.00097;stroke-linecap:butt;stroke-linejoin:miter;stroke-miterlimit:4;stroke-dasharray:none;stroke-dashoffset:0;stroke-opacity:1;marker:none;enable-background:accumulate" d="M 0.99850209,513.69318 H 1023.998" id="SvgjsPath1086" inkscape:connector-curvature="0"></path>
    <path style="color:#000000;display:inline;overflow:visible;visibility:visible;fill:none;stroke:#000000;stroke-width:2.00097;stroke-linecap:butt;stroke-linejoin:miter;stroke-miterlimit:4;stroke-dasharray:none;stroke-dashoffset:0;stroke-opacity:1;marker:none;enable-background:accumulate" d="M 0.99850209,321.0352 H 1023.998" id="SvgjsPath1085" inkscape:connector-curvature="0"></path>
    <path style="color:#000000;display:inline;overflow:visible;visibility:visible;fill:none;stroke:#000000;stroke-width:2.00097;stroke-linecap:butt;stroke-linejoin:miter;stroke-miterlimit:4;stroke-dasharray:none;stroke-dashoffset:0;stroke-opacity:1;marker:none;enable-background:accumulate" d="M 319.39257,1026.2054 V 2.2054443" id="SvgjsPath1084" inkscape:connector-curvature="0" sodipodi:nodetypes="cc"></path>
    <path style="color:#000000;display:inline;overflow:visible;visibility:visible;fill:none;stroke:#000000;stroke-width:2.00097;stroke-linecap:butt;stroke-linejoin:miter;stroke-miterlimit:4;stroke-dasharray:none;stroke-dashoffset:0;stroke-opacity:1;marker:none;enable-background:accumulate" d="M 512.17858,2.2054443 V 1026.2054" id="SvgjsPath1083" inkscape:connector-curvature="0" sodipodi:nodetypes="cc"></path>
    <path style="color:#000000;display:inline;overflow:visible;visibility:visible;fill:none;stroke:#000000;stroke-width:2.00097;stroke-linecap:butt;stroke-linejoin:miter;stroke-miterlimit:4;stroke-dasharray:none;stroke-dashoffset:0;stroke-opacity:1;marker:none;enable-background:accumulate" d="M 706.8756,1026.2054 V 2.2054443" id="SvgjsPath1082" inkscape:connector-curvature="0" sodipodi:nodetypes="cc"></path>
    <path style="color:#000000;display:inline;overflow:visible;visibility:visible;fill:none;stroke:#000000;stroke-width:2.00097;stroke-linecap:butt;stroke-linejoin:miter;stroke-miterlimit:4;stroke-dasharray:none;stroke-dashoffset:0;stroke-opacity:1;marker:none;enable-background:accumulate" d="M 67.417108,958.70544 957.49473,69.489974" id="SvgjsPath1081" inkscape:connector-curvature="0" sodipodi:nodetypes="cc"></path>
    <path style="color:#000000;display:inline;overflow:visible;visibility:visible;fill:none;stroke:#000000;stroke-width:2.00097;stroke-linecap:butt;stroke-linejoin:miter;stroke-miterlimit:4;stroke-dasharray:none;stroke-dashoffset:0;stroke-opacity:1;marker:none;enable-background:accumulate" d="M 957.49473,69.489974 V 958.70544" id="SvgjsPath1080" inkscape:connector-curvature="0" sodipodi:nodetypes="cc"></path>
    <path style="color:#000000;display:inline;overflow:visible;visibility:visible;fill:none;stroke:#000000;stroke-width:2.00097;stroke-linecap:butt;stroke-linejoin:miter;stroke-miterlimit:4;stroke-dasharray:none;stroke-dashoffset:0;stroke-opacity:1;marker:none;enable-background:accumulate" d="M 67.417108,69.489974 H 957.49473" id="SvgjsPath1079" inkscape:connector-curvature="0" sodipodi:nodetypes="cc"></path>
    <path style="color:#000000;display:inline;overflow:visible;visibility:visible;fill:none;stroke:#000000;stroke-width:2.00097;stroke-linecap:butt;stroke-linejoin:miter;stroke-miterlimit:4;stroke-dasharray:none;stroke-dashoffset:0;stroke-opacity:1;marker:none;enable-background:accumulate" d="M 67.417108,958.70544 V 69.489974" id="SvgjsPath1078" inkscape:connector-curvature="0" sodipodi:nodetypes="cc"></path>
    <path style="color:#000000;display:inline;overflow:visible;visibility:visible;fill:none;stroke:#000000;stroke-width:2.00097;stroke-linecap:butt;stroke-linejoin:miter;stroke-miterlimit:4;stroke-dasharray:none;stroke-dashoffset:0;stroke-opacity:1;marker:none;enable-background:accumulate" d="m 957.49473,958.70544 -890.077622,-3e-5" id="SvgjsPath1077" inkscape:connector-curvature="0" sodipodi:nodetypes="cc"></path>
    <ellipse style="color:#000000;display:inline;overflow:visible;visibility:visible;fill:none;stroke:#000000;stroke-width:2.00097;stroke-linecap:butt;stroke-linejoin:miter;stroke-miterlimit:4;stroke-dasharray:none;stroke-dashoffset:0;stroke-opacity:1;marker:none;enable-background:accumulate" id="SvgjsEllipse1076" cx="513.13409" cy="513.91528" rx="193.74152" ry="192.70981"></ellipse>
  </g>
</svg><style>@media (prefers-color-scheme: light) { :root { filter: none; } }
@media (prefers-color-scheme: dark) { :root { filter: none; } }
</style></svg>