<svg xmlns="http://www.w3.org/2000/svg" version="1.1" xmlns:xlink="http://www.w3.org/1999/xlink" width="62" height="40"><svg width="62" height="40" viewBox="0 0 62 40" fill="none" xmlns="http://www.w3.org/2000/svg">
<path d="M27.3851 0C26.6356 0.00660143 25.8874 0.0632257 25.1454 0.1695C25.0973 0.175144 25.0492 0.181 25.0011 0.187063C24.5348 0.255013 24.0716 0.342501 23.6127 0.449294C23.5006 0.47325 23.3888 0.498353 23.2772 0.524607C22.8796 0.626661 22.4858 0.743226 22.0966 0.87406C21.9334 0.925501 21.771 0.979439 21.6094 1.03586C21.2746 1.16066 20.944 1.29608 20.6178 1.44191C20.4132 1.52866 20.2104 1.61947 20.0093 1.7143C19.7343 1.85125 19.4631 1.9957 19.1961 2.14748C18.9574 2.27684 18.7218 2.41199 18.4896 2.55279C18.2738 2.69025 18.0612 2.8326 17.8519 2.97974C17.5824 3.16098 17.3182 3.35 17.0594 3.54657C16.9074 3.66776 16.7575 3.79156 16.6098 3.91794C16.3072 4.16577 16.0133 4.42409 15.7283 4.69244C15.6463 4.7736 15.5652 4.85559 15.4849 4.93842C15.1456 5.27322 14.8204 5.62229 14.5101 5.98472C14.5012 5.99574 14.4923 6.00677 14.4834 6.01781C11.8793 9.08853 10.4343 12.9934 10.405 17.0395C7.73862 17.2976 5.24574 18.4779 3.35594 20.377C1.46615 22.276 0.297803 24.7749 0.0522324 27.443C0.0358983 27.6537 0.0253533 27.8648 0.0206096 28.0761C0.0112854 28.2132 0.00441444 28.3504 0 28.4877C0.000426599 28.5003 0.000873986 28.5129 0.00134216 28.5256C0.00368846 28.6899 0.00954313 28.8542 0.0189021 29.0182C0.023843 29.1428 0.0308082 29.2674 0.039795 29.3918C0.2231 31.8753 1.20431 34.2299 2.83373 36.0965C4.46315 37.9631 6.65132 39.2391 9.06441 39.7299C9.14441 39.7484 9.2246 39.7661 9.30498 39.7829C9.43021 39.804 9.55578 39.823 9.68164 39.8398C10.2148 39.9273 10.7535 39.9772 11.2936 39.9891V40H50.4414C50.8672 39.9954 51.2925 39.9672 51.7153 39.9154C51.8903 39.8983 52.0649 39.8772 52.2389 39.8518C52.3153 39.8409 52.3916 39.8293 52.4677 39.8169C54.5157 39.4921 56.4356 38.6025 58.0165 37.2459C59.5974 35.8893 60.7783 34.118 61.4293 32.1267C62.0804 30.1354 62.1764 28.0011 61.7069 25.9581C61.2375 23.9152 60.2206 22.0427 58.7681 20.5463C58.7167 20.4926 58.6647 20.4395 58.6123 20.3868C58.4554 20.2319 58.2942 20.0816 58.1287 19.9362C57.934 19.7614 57.7334 19.5933 57.5273 19.4322C57.5098 19.4189 57.4924 19.4057 57.4749 19.3925C56.0715 18.302 54.4347 17.5514 52.6928 17.1994C52.6952 16.929 52.6849 16.6585 52.662 16.3891C52.5141 14.2614 51.5648 12.2691 50.0056 10.8142C48.4464 9.35928 46.3934 8.55012 44.261 8.55C43.5573 8.55229 42.8567 8.64278 42.1756 8.81934C40.7314 6.15454 38.5953 3.92875 35.9922 2.37659C33.3892 0.824428 30.4157 0.00338772 27.3851 0H27.3851Z" fill="#0098FF"></path>
<path d="M23.7801 6.90527C23.225 6.90527 22.6753 7.01456 22.1624 7.22691C21.6495 7.43925 21.1835 7.75049 20.791 8.14285C20.3984 8.53522 20.087 9.00102 19.8746 9.51367C19.6622 10.0263 19.5528 10.5758 19.5528 11.1307C19.5547 12.042 19.8512 12.9282 20.3982 13.6573L13.7364 27.3449C13.6194 27.3341 13.502 27.3282 13.3845 27.3272C12.8294 27.3272 12.2797 27.4365 11.7668 27.6489C11.2539 27.8612 10.7879 28.1725 10.3953 28.5648C10.0028 28.9572 9.69143 29.423 9.47899 29.9356C9.26655 30.4483 9.15721 30.9978 9.15721 31.5526C9.15724 32.6733 9.60263 33.748 10.3954 34.5404C11.1882 35.3327 12.2634 35.7779 13.3845 35.7779C14.3148 35.7769 15.2189 35.4691 15.9564 34.9023H43.5494C43.9445 35.3273 44.4229 35.6665 44.9549 35.8986C45.4869 36.1307 46.0609 36.2509 46.6414 36.2516C47.1965 36.2516 47.7462 36.1423 48.2591 35.9299C48.772 35.7176 49.238 35.4063 49.6305 35.014C50.0231 34.6216 50.3345 34.1558 50.5469 33.6432C50.7593 33.1305 50.8687 32.5811 50.8687 32.0262C50.868 31.1886 50.6183 30.3701 50.1513 29.6746C49.6842 28.9792 49.021 28.4382 48.2457 28.1203L46.1545 21.3271C46.7642 20.948 47.2673 20.42 47.6163 19.7927C47.9652 19.1655 48.1486 18.4598 48.1491 17.7421C48.1491 16.6214 47.7037 15.5467 46.9109 14.7543C46.1182 13.962 45.0429 13.5168 43.9218 13.5168C43.2631 13.5177 42.6137 13.6724 42.0254 13.9686C41.4371 14.2649 40.9262 14.6944 40.5335 15.223L28.0044 11.0486C27.9829 9.94274 27.5284 8.88942 26.7386 8.11476C25.9489 7.3401 24.8867 6.90586 23.7801 6.90527V6.90527ZM27.1134 13.7209L39.7034 17.9157C39.7452 18.9123 40.1384 19.862 40.8133 20.5967C41.4883 21.3314 42.4015 21.8037 43.3914 21.93L45.2704 28.0338C44.7145 28.225 44.2046 28.53 43.7733 28.9292L33.0162 24.1856C33.0308 24.0433 33.0382 23.9004 33.0383 23.7573C33.0383 23.2025 32.929 22.653 32.7166 22.1404C32.5041 21.6277 32.1927 21.1619 31.8002 20.7695C31.4077 20.3772 30.9416 20.0659 30.4288 19.8536C29.9159 19.6412 29.3662 19.532 28.811 19.532C28.7239 19.5336 28.6369 19.538 28.5501 19.5451L26.3456 14.4771C26.6328 14.2588 26.8908 14.0047 27.1134 13.7209V13.7209ZM22.7675 15.2284C23.0575 15.3006 23.3542 15.3418 23.6528 15.3514L25.9566 20.6477C25.5249 21.0428 25.1799 21.5232 24.9436 22.0585C24.7073 22.5938 24.5848 23.1723 24.5839 23.7573C24.5839 23.9981 24.6044 24.2384 24.6453 24.4756L16.4023 28.5951C16.3706 28.5646 16.3383 28.5347 16.3056 28.5052L22.7675 15.2284ZM31.8089 26.732L42.4608 31.4292C42.4311 31.6268 42.4155 31.8263 42.4141 32.0262C42.4146 32.0459 42.4153 32.0657 42.4161 32.0854H17.574C17.5978 31.9088 17.6104 31.7309 17.6118 31.5526C17.6105 31.4187 17.6028 31.2848 17.5888 31.1516L26.0284 26.9338C26.7982 27.6088 27.787 27.9815 28.811 27.9827C29.3686 27.9822 29.9205 27.8714 30.435 27.6567C30.9495 27.4421 31.4164 27.1278 31.8089 26.732V26.732Z" fill="white"></path>
</svg><style>@media (prefers-color-scheme: light) { :root { filter: none; } }
@media (prefers-color-scheme: dark) { :root { filter: none; } }
</style></svg>